<svg width="776" height="796" viewBox="0 0 776 796" fill="none" xmlns="http://www.w3.org/2000/svg">
<rect width="776" height="796" rx="20" fill="white"/>
<g clip-path="url(#clip0)">
<path d="M182.106 323.729C188.578 328.296 208.087 341.86 240.634 364.414C273.182 386.968 298.116 404.334 315.437 416.513C317.34 417.848 321.383 420.75 327.568 425.223C333.754 429.699 338.894 433.316 342.984 436.075C347.077 438.833 352.025 441.927 357.833 445.352C363.639 448.774 369.112 451.348 374.251 453.052C379.391 454.77 384.149 455.621 388.526 455.621H388.813H389.101C393.478 455.621 398.238 454.769 403.378 453.052C408.515 451.348 413.993 448.771 419.794 445.352C425.598 441.923 430.546 438.832 434.639 436.075C438.732 433.316 443.868 429.699 450.056 425.223C456.24 420.746 460.288 417.848 462.191 416.513C479.699 404.334 524.242 373.403 595.806 323.723C609.7 314.02 621.308 302.312 630.633 288.607C639.965 274.908 644.626 260.537 644.626 245.502C644.626 232.938 640.103 222.183 631.061 213.238C622.02 204.291 611.312 199.82 598.944 199.82H178.679C164.024 199.82 152.746 204.768 144.847 214.664C136.949 224.562 133 236.934 133 251.779C133 263.77 138.236 276.764 148.703 290.753C159.169 304.743 170.307 315.736 182.106 323.729Z" fill="#CB2960"/>
<path d="M616.072 354.275C553.648 396.526 506.248 429.362 473.895 452.776C463.046 460.767 454.245 467.005 447.486 471.475C440.727 475.948 431.738 480.516 420.506 485.177C409.278 489.845 398.814 492.172 389.105 492.172H388.814H388.527C378.82 492.172 368.35 489.845 357.122 485.177C345.894 480.516 336.899 475.948 330.142 471.475C323.387 467.005 314.583 460.767 303.735 452.776C278.038 433.934 230.74 401.096 161.839 354.275C150.987 347.047 141.375 338.762 133 329.437V556.122C133 568.692 137.471 579.441 146.418 588.387C155.363 597.336 166.119 601.809 178.682 601.809H598.948C611.508 601.809 622.263 597.336 631.209 588.387C640.158 579.438 644.627 568.693 644.627 556.122V329.437C636.441 338.569 626.927 346.854 616.072 354.275Z" fill="#CB2960"/>
</g>
<defs>
<clipPath id="clip0">
<rect width="511.626" height="511.626" fill="white" transform="translate(133 145)"/>
</clipPath>
</defs>
</svg>
