<svg width="776" height="796" viewBox="0 0 776 796" fill="none" xmlns="http://www.w3.org/2000/svg">
<rect width="776" height="796" rx="20" fill="white"/>
<g clip-path="url(#clip0)">
<path d="M632.907 518.747C568.054 507.654 539.04 442.8 535.627 435.12V434.267C532.214 427.44 531.36 422.32 533.067 418.054C536.48 410.374 550.987 405.254 560.374 402.694C562.934 401.841 565.494 400.987 567.201 400.134C585.121 392.454 594.508 383.067 594.508 371.974C594.508 363.441 587.681 354.907 577.441 351.494C574.028 349.787 569.761 348.934 565.494 348.934C562.934 348.934 558.667 349.787 554.401 351.494C545.868 354.907 539.041 357.467 533.921 357.467C532.214 357.467 530.508 357.467 528.801 356.614C529.654 354.054 529.654 351.494 529.654 348.081V346.374C531.361 311.387 534.774 267.867 522.827 242.267C487.84 165.467 415.307 159.494 393.974 159.494H383.734C362.401 159.494 289.867 165.467 255.734 242.267C243.787 267.867 246.347 311.387 248.907 346.374C249.76 349.787 249.76 353.201 249.76 356.614C248.053 356.614 245.493 357.467 242.933 357.467C236.106 357.467 229.28 355.76 220.746 351.494C208.799 346.374 185.759 354.054 183.199 369.414C181.492 377.947 184.906 389.894 210.506 400.134C212.213 400.987 214.773 401.841 218.186 402.694C226.719 405.254 241.226 410.374 244.639 418.054C246.346 421.467 245.492 427.441 242.079 434.267C240.372 436.827 210.506 505.947 143.092 517.04C136.267 518.747 132 524.72 132 531.547C132 534.107 132.853 535.814 133.707 537.52C138.827 551.173 161.014 559.707 201.12 566.533C201.973 569.093 202.827 574.213 203.68 576.773C204.533 580.186 205.387 584.453 206.24 588.72C207.093 592.987 211.36 599.813 221.6 599.813C225.013 599.813 229.28 598.96 233.547 598.106C240.374 596.399 248.907 594.693 260 594.693C266.827 594.693 272.8 595.546 279.627 597.253C291.574 598.96 302.667 606.64 314.614 615.173C332.534 627.973 348.747 637.36 382.027 637.36C382.88 637.36 383.734 637.36 384.587 637.36C385.44 637.36 387.147 637.36 388 637.36C417.013 637.36 442.613 629.68 464.8 615.173C476.747 607.493 487.84 598.96 499.787 597.253C505.76 596.4 512.587 595.546 518.56 595.546C528.8 595.546 537.333 596.399 545.013 598.106C550.133 598.959 554.4 599.813 557.813 599.813C564.64 599.813 570.613 595.546 572.32 588.72C573.173 584.453 574.027 581.04 574.88 576.773C575.733 575.066 576.587 569.946 577.44 567.386C617.547 561.413 637.173 552.026 643.147 539.226C644 537.519 644.854 534.959 644.854 533.253C644.853 526.427 639.733 519.6 632.907 518.747ZM572.32 550.32C562.08 551.173 560.373 561.413 557.813 572.507C556.96 575.067 556.106 578.48 555.253 581.894C553.546 581.894 550.986 581.894 546.72 581.041C538.187 579.334 528.8 577.628 516.853 577.628C510.026 577.628 503.2 578.481 495.52 579.335C480.16 581.895 466.507 591.282 453.707 600.668C434.933 614.32 413.6 620.293 388 620.293C387.147 620.293 386.293 620.293 384.587 620.293C384.356 620.293 384.142 620.293 383.947 620.293C383.874 620.293 383.801 620.293 383.734 620.293C355.574 620.293 341.921 611.76 325.707 600.666C312.907 591.279 300.107 581.893 283.894 579.333C277.067 578.48 269.387 577.626 262.561 577.626C249.761 577.626 239.521 579.333 232.694 581.039C229.281 581.892 226.721 582.746 224.161 582.746C223.308 579.333 222.454 575.919 221.601 572.506C219.041 561.413 217.334 551.173 207.094 549.466C169.547 544.346 156.747 536.666 152.481 533.253C222.454 518.746 254.881 450.48 259.148 441.093C264.268 430 265.121 419.76 261.708 411.226C254.881 395.866 236.108 389.893 224.161 386.479C221.601 386.479 219.894 385.626 218.188 384.772C203.68 378.8 201.12 373.68 201.12 372.827C201.12 370.267 207.093 366.854 212.213 366.854C213.92 366.854 214.773 366.854 214.773 366.854C225.013 371.974 235.253 374.534 243.786 374.534C256.586 374.534 263.413 368.561 265.119 366.854C266.825 365.147 267.679 363.441 267.679 360.881C267.679 355.761 266.826 350.641 266.826 345.521C264.266 312.241 261.706 271.281 271.946 249.094C301.813 181.681 365.813 176.561 384.586 176.561H393.119H393.972C412.745 176.561 476.745 181.681 507.465 247.388C516.852 269.575 514.292 310.535 512.585 343.815V345.522C512.585 350.642 511.732 354.909 511.732 359.175C511.732 361.735 512.585 364.295 514.292 366.002C515.999 367.709 521.972 372.829 534.772 373.682C543.305 372.829 551.839 370.269 562.079 366.002C563.786 365.149 568.052 365.149 571.466 366.855C575.733 368.562 577.439 371.122 577.439 371.975C577.439 373.682 574.026 378.802 560.372 383.922C558.665 384.775 556.105 385.629 553.545 386.482C542.452 389.895 523.678 395.869 516.852 411.229C512.585 419.762 514.292 430.002 519.412 441.096C522.825 449.629 554.399 519.603 625.225 534.109C620.96 537.52 609.013 544.347 572.32 550.32Z" fill="#CB2960"/>
<path d="M572.32 550.32C562.08 551.173 560.373 561.413 557.813 572.507C556.96 575.067 556.106 578.48 555.253 581.894C553.546 581.894 550.986 581.894 546.72 581.041C538.187 579.334 528.8 577.628 516.853 577.628C510.026 577.628 503.2 578.481 495.52 579.335C480.16 581.895 466.507 591.282 453.707 600.668C434.933 614.32 413.6 620.293 388 620.293H384.587H383.947H383.734C355.574 620.293 341.921 611.76 325.707 600.666C312.907 591.279 300.107 581.893 283.894 579.333C277.067 578.48 269.387 577.626 262.561 577.626C249.761 577.626 239.521 579.333 232.694 581.039C229.281 581.892 226.721 582.746 224.161 582.746C223.308 579.333 222.454 575.919 221.601 572.506C219.041 561.413 217.334 551.173 207.094 549.466C169.547 544.346 156.747 536.666 152.481 533.253C222.454 518.746 254.881 450.48 259.148 441.093C264.268 430 265.121 419.76 261.708 411.226C254.881 395.866 236.108 389.893 224.161 386.479C221.601 386.479 219.894 385.626 218.188 384.772C203.68 378.8 201.12 373.68 201.12 372.827C201.12 370.267 207.093 366.854 212.213 366.854H214.773C225.013 371.974 235.253 374.534 243.786 374.534C256.586 374.534 263.413 368.561 265.119 366.854C266.825 365.147 267.679 363.441 267.679 360.881C267.679 355.761 266.826 350.641 266.826 345.521C264.266 312.241 261.706 271.281 271.946 249.094C301.813 181.681 365.813 176.561 384.586 176.561H393.119H393.972C412.745 176.561 476.745 181.681 507.465 247.388C516.852 269.575 514.292 310.535 512.585 343.815V345.522C512.585 350.642 511.732 354.909 511.732 359.175C511.732 361.735 512.585 364.295 514.292 366.002C515.999 367.709 521.972 372.829 534.772 373.682C543.305 372.829 551.839 370.269 562.079 366.002C563.786 365.149 568.052 365.149 571.466 366.855C575.733 368.562 577.439 371.122 577.439 371.975C577.439 373.682 574.026 378.802 560.372 383.922C558.665 384.775 556.105 385.629 553.545 386.482C542.452 389.895 523.678 395.869 516.852 411.229C512.585 419.762 514.292 430.002 519.412 441.096C522.825 449.629 554.399 519.603 625.225 534.109C620.96 537.52 609.013 544.347 572.32 550.32Z" fill="#CB2960"/>
</g>
<defs>
<clipPath id="clip0">
<rect width="512.853" height="512.853" fill="white" transform="translate(132 142)"/>
</clipPath>
</defs>
</svg>
