<svg width="776" height="796" viewBox="0 0 776 796" fill="none" xmlns="http://www.w3.org/2000/svg">
<rect width="776" height="796" rx="20" fill="white"/>
<g clip-path="url(#clip0)">
<path d="M640.342 236.243C637.739 233.64 633.4 232.772 629.928 233.64L612.572 239.715C622.986 227.566 629.928 214.549 634.267 202.4C636.003 198.061 635.135 194.59 632.531 191.986C629.928 189.383 625.589 188.515 622.117 190.25C597.819 200.664 576.992 209.342 559.636 214.548C559.636 215.416 558.768 214.548 557.9 214.548C544.015 206.738 510.171 189.382 485.873 189.382C424.259 190.25 374.795 242.318 374.795 305.667V309.138C284.544 291.782 235.08 265.748 181.276 209.341L172.6 200.663L167.393 211.077C137.888 267.484 158.715 318.684 192.559 353.396C176.939 350.793 166.525 345.586 156.979 337.776C153.508 335.173 149.169 334.305 144.83 336.908C141.359 338.644 139.623 343.85 140.491 348.189C152.64 388.975 183.013 421.952 215.989 441.911C200.369 441.911 187.352 440.175 174.335 431.497C170.864 429.761 165.657 429.761 162.186 432.365C158.715 434.969 156.979 439.307 158.715 443.646C174.335 487.904 204.708 511.334 253.305 517.409C228.139 532.162 195.163 544.311 143.963 545.179C138.756 545.179 134.417 548.65 132.682 552.989C130.946 558.196 132.682 562.535 136.153 566.006C167.394 591.172 236.817 605.925 322.729 605.925C475.461 605.925 600.424 469.681 600.424 302.196V299.593C619.516 290.047 635.136 271.823 642.946 246.657C643.813 243.185 642.945 238.846 640.342 236.243ZM588.274 285.707L583.067 287.443V302.196C583.067 460.135 465.914 588.569 322.728 588.569C243.758 588.569 190.823 575.552 162.186 561.667C222.064 557.328 256.776 538.236 283.678 517.409L305.373 501.789H279.339C229.875 501.789 199.502 487.904 182.146 454.928C197.766 460.135 214.254 460.135 232.478 459.267C239.42 458.399 246.363 458.399 253.305 458.399L255.908 441.043C222.932 431.497 183.881 401.992 164.789 362.074C182.145 369.884 201.236 371.62 218.592 371.62H245.494L223.8 355.999C205.576 342.982 151.773 296.989 177.807 231.036C233.346 285.707 286.282 310.873 381.739 328.229L392.153 329.965V305.667C392.153 251.864 433.807 207.606 485.875 206.738C505.467 205.886 537.604 223.431 547.806 229.001C547.997 229.105 548.181 229.205 548.356 229.301C553.563 231.904 558.77 232.772 563.976 231.037C576.993 226.698 592.613 220.623 609.969 213.681C602.159 226.698 591.745 238.847 577.861 250.129C574.39 252.732 573.522 257.939 575.258 262.278C576.994 266.617 582.2 268.353 586.539 266.617L620.383 255.336C614.308 266.616 604.762 279.633 588.274 285.707Z" fill="#CB2960"/>
<path d="M588.274 285.707L583.067 287.443V302.196C583.067 460.135 465.914 588.569 322.728 588.569C243.758 588.569 190.823 575.552 162.186 561.667C222.064 557.328 256.776 538.236 283.678 517.409L305.373 501.789H279.339C229.875 501.789 199.502 487.904 182.146 454.928C197.766 460.135 214.254 460.135 232.478 459.267C239.42 458.399 246.363 458.399 253.305 458.399L255.908 441.043C222.932 431.497 183.881 401.992 164.789 362.074C182.145 369.884 201.236 371.62 218.592 371.62H245.494L223.8 355.999C205.576 342.982 151.773 296.989 177.807 231.036C233.346 285.707 286.282 310.873 381.739 328.229L392.153 329.965V305.667C392.153 251.864 433.807 207.606 485.875 206.738C505.467 205.886 537.604 223.431 547.806 229.001L548.356 229.301C553.563 231.904 558.77 232.772 563.976 231.037C576.993 226.698 592.613 220.623 609.969 213.681C602.159 226.698 591.745 238.847 577.861 250.129C574.39 252.732 573.522 257.939 575.258 262.278C576.994 266.617 582.2 268.353 586.539 266.617L620.383 255.336C614.308 266.616 604.762 279.633 588.274 285.707Z" fill="#CB2960"/>
</g>
<defs>
<clipPath id="clip0">
<rect width="511.271" height="511.271" fill="white" transform="translate(132 142)"/>
</clipPath>
</defs>
</svg>
